<?xml version="1.0" encoding="UTF-8"?>
<svg id="Layer_1" data-name="Layer 1" xmlns="http://www.w3.org/2000/svg" width="318.52" height="166.52" viewBox="0 0 318.52 166.52">
  <defs>
    <style>
      .cls-1 {
        fill: none;
        stroke: #fff;
        stroke-miterlimit: 10;
        stroke-width: .75px;
      }

      .cls-2 {
        fill: #136ef6;
      }

      .cls-2, .cls-3 {
        stroke-width: 0px;
      }

      .cls-3 {
        fill: #fff;
      }
    </style>
  </defs>
  <g>
    <path class="cls-3" d="m3.3,166.52v-49.88h20.04c10.02,0,15.63,6.88,15.63,15.03s-5.68,15.03-15.63,15.03h-13.83v19.82H3.3Zm29.24-34.85c0-5.61-4.04-9.5-9.95-9.5h-13.09v18.99h13.09c5.91,0,9.95-3.89,9.95-9.5Z"/>
    <path class="cls-3" d="m77.04,166.52l-4.41-11.14h-24.82l-4.41,11.14h-7.1l20.11-49.88h7.7l20.04,49.88h-7.1Zm-16.82-43.52l-10.54,26.92h21.16l-10.62-26.92Z"/>
    <path class="cls-3" d="m119.51,166.52l-12.64-19.82h-10.02v19.82h-6.21v-49.88h20.04c9.12,0,15.7,5.83,15.7,15.03s-6.21,13.91-13.01,14.51l13.46,20.34h-7.33Zm.45-34.85c0-5.68-4.11-9.5-10.02-9.5h-13.09v19.07h13.09c5.91,0,10.02-3.96,10.02-9.57Z"/>
    <path class="cls-3" d="m147.78,166.52v-44.34h-15.78v-5.53h37.84v5.53h-15.85v44.34h-6.21Z"/>
    <path class="cls-3" d="m213.36,166.52l-29.09-39.78v39.78h-6.21v-49.88h6.36l28.71,38.96v-38.96h6.21v49.88h-5.98Z"/>
    <path class="cls-3" d="m231.01,166.52v-49.88h32.68v5.53h-26.47v16.08h25.95v5.53h-25.95v17.2h26.47v5.53h-32.68Z"/>
    <path class="cls-3" d="m302.43,166.52l-12.64-19.82h-10.02v19.82h-6.21v-49.88h20.04c9.12,0,15.7,5.83,15.7,15.03s-6.21,13.91-13.01,14.51l13.46,20.34h-7.33Zm.45-34.85c0-5.68-4.11-9.5-10.02-9.5h-13.09v19.07h13.09c5.91,0,10.02-3.96,10.02-9.57Z"/>
  </g>
  <line class="cls-1" x1="4.04" y1="87.07" x2="309.64" y2="87.07"/>
  <g>
    <g>
      <path class="cls-3" d="m228.03,7.56h-31.74c-.95,0-1.53.59-1.53,1.54v2.48c0,.95.59,1.54,1.53,1.54h12.92v42.88c0,.9.59,1.47,1.53,1.47h2.83c.9,0,1.46-.56,1.46-1.47V13.12h12.99c.9,0,1.46-.59,1.46-1.54v-2.48c0-.95-.56-1.54-1.46-1.54Z"/>
      <path class="cls-3" d="m30.49,34.96c-1.71-1.91-4.28-3.37-7.65-4.35l-9.85-2.83c-1.09-.31-2.11-.67-3.04-1.07-.87-.37-1.62-.83-2.22-1.37-.58-.52-1.03-1.16-1.35-1.91-.32-.76-.48-1.72-.48-2.85v-.71c0-2.18.66-3.85,2.01-5.09,1.35-1.24,3.3-1.87,5.81-1.87h15.02c.95,0,1.54-.56,1.54-1.46v-2.41c0-.9-.59-1.46-1.54-1.46h-15.94c-1.86,0-3.59.29-5.13.86-1.54.57-2.9,1.39-4.05,2.44-1.15,1.05-2.05,2.32-2.68,3.78-.63,1.45-.94,3.09-.94,4.88v1.7c0,2.99.85,5.51,2.54,7.49,1.66,1.96,4.03,3.38,7.03,4.22l9.63,2.76c1.3.37,2.48.78,3.5,1.21.99.41,1.83.93,2.5,1.54.66.59,1.17,1.32,1.53,2.17.36.86.55,1.93.55,3.2v1.49c0,2.14-.64,3.77-1.94,4.99-1.3,1.22-3.23,1.83-5.73,1.83H3.66c-.95,0-1.53.56-1.53,1.46v2.41c0,.9.59,1.46,1.53,1.46h16.86c3.8,0,6.88-1.11,9.15-3.31,2.28-2.2,3.43-5.11,3.43-8.64v-2.34c0-3.51-.88-6.28-2.62-8.21Z"/>
      <path class="cls-3" d="m120.49,7.56h-2.83c-.95,0-1.53.59-1.53,1.53v46.9c0,.9.59,1.47,1.53,1.47h2.83c.9,0,1.46-.56,1.46-1.47V9.1c0-.95-.56-1.53-1.46-1.53Z"/>
      <path class="cls-3" d="m86.22,7.56h-2.83c-.95,0-1.53.59-1.53,1.53v21.27c-.09-.02-.17-.05-.27-.05h-17.91c-.06,0-.12.01-.17.02V9.1c0-.95-.56-1.53-1.46-1.53h-2.83c-.95,0-1.53.59-1.53,1.53v46.9c0,.9.59,1.47,1.53,1.47h2.83c.9,0,1.46-.56,1.46-1.47v-20.4h18.08c.1,0,.18-.03.27-.05v20.45c0,.9.59,1.47,1.53,1.47h2.83c.9,0,1.46-.56,1.46-1.47V9.1c0-.95-.56-1.53-1.46-1.53Z"/>
      <path class="cls-3" d="m171.94,7.56h-20.21c-.95,0-1.3.83-1.3,1.77l-.06,46.66c0,.9.59,1.47,1.54,1.47h2.83c.9,0,1.46-.56,1.46-1.47v-20.4h13.88c.79,0,1.29-.56,1.29-1.46v-2.35c0-.9-.49-1.46-1.29-1.46h-13.88V13.12h15.73c.9,0,1.46-.59,1.46-1.54v-2.48c0-.95-.56-1.53-1.46-1.53Z"/>
    </g>
    <path class="cls-3" d="m283.38,13.93l-17.99,23.07c-.08.1-.12.22-.12.34v2.65c0,.3.25.55.55.55h16.07c.3,0,.55.25.55.55v9.32c0,.3.25.55.55.55h3.43c.3,0,.55-.25.55-.55V14.27c0-.3-.25-.55-.55-.55h-2.62c-.17,0-.33.08-.43.21Zm-12.04,21.61l10.12-12.92c.32-.41.99-.18.99.34v12.92c0,.3-.25.55-.55.55h-10.12c-.46,0-.72-.53-.43-.89Z"/>
    <path class="cls-2" d="m279.53,0c-17.93,0-32.51,14.59-32.51,32.51s14.59,32.51,32.51,32.51,32.51-14.59,32.51-32.51S297.46,0,279.53,0Zm27.89,32.51c0,15.38-12.51,27.89-27.89,27.89s-27.89-12.51-27.89-27.89,12.51-27.89,27.89-27.89,27.89,12.51,27.89,27.89Z"/>
    <path class="cls-3" d="m313.76,8.61c0,.06,0,.1,0,.14,0,.04-.01.07-.02.09,0,.02-.02.04-.04.05-.01.01-.03.02-.05.02h-.93v2.99s0,.04-.02.05c-.01.02-.03.03-.06.04s-.07.02-.12.02-.11,0-.18,0-.13,0-.18,0-.09-.01-.12-.02-.05-.02-.06-.04c-.01-.02-.02-.03-.02-.05v-2.99h-.93s-.04,0-.05-.02c-.01-.01-.02-.03-.03-.05,0-.02-.02-.06-.02-.09,0-.04,0-.09,0-.14s0-.11,0-.15.01-.07.02-.1c0-.02.02-.04.03-.05.01-.01.03-.02.05-.02h2.62s.03,0,.05.02c.01.01.03.03.04.05,0,.02.02.06.02.1s0,.09,0,.15Z"/>
    <path class="cls-3" d="m318.52,11.9s0,.04-.02.05c-.01.02-.03.03-.06.04-.03,0-.06.02-.11.02s-.1,0-.17,0-.13,0-.17,0c-.05,0-.08-.01-.11-.02s-.05-.02-.06-.04c-.01-.02-.02-.03-.02-.05v-3.02h0l-1.08,3.02s-.02.05-.04.06c-.02.02-.04.03-.07.04-.03,0-.07.02-.11.02-.05,0-.1,0-.17,0s-.12,0-.17,0c-.05,0-.08-.01-.11-.02-.03-.01-.05-.02-.07-.04-.02-.02-.03-.03-.03-.05l-1.04-3.02h0v3.02s0,.04-.02.05c-.01.02-.03.03-.06.04s-.07.02-.11.02c-.05,0-.1,0-.17,0s-.13,0-.17,0c-.05,0-.08-.01-.11-.02-.03,0-.05-.02-.06-.04-.01-.02-.02-.03-.02-.05v-3.31c0-.1.03-.17.08-.22.05-.05.12-.08.21-.08h.49c.09,0,.16,0,.23.02.06.01.12.04.16.07.05.03.08.08.11.13s.06.12.08.2l.8,2.21h.01l.83-2.21c.02-.08.05-.15.08-.2.03-.06.06-.1.1-.13s.09-.06.14-.07.12-.02.19-.02h.51c.05,0,.1,0,.13.02s.07.03.09.06.04.06.05.09c.01.04.02.08.02.13v3.31Z"/>
  </g>
</svg>